<mxfile host="app.diagrams.net" agent="Mozilla/5.0 (Windows NT 10.0; Win64; x64) AppleWebKit/537.36 (KHTML, like Gecko) Chrome/130.0.0.0 Safari/537.36 Edg/130.0.0.0" version="24.8.3">
  <diagram name="Page-1" id="VRHBHqu6FbtEicVnQ_0X">
    <mxGraphModel grid="1" page="1" gridSize="10" guides="1" tooltips="1" connect="1" arrows="1" fold="1" pageScale="1" pageWidth="3300" pageHeight="4681" math="0" shadow="0">
      <root>
        <mxCell id="0" />
        <mxCell id="1" parent="0" />
        <mxCell id="wZW8fb8Z9hkYaqVKA6MU-5" style="edgeStyle=orthogonalEdgeStyle;rounded=0;orthogonalLoop=1;jettySize=auto;html=1;entryX=0.5;entryY=0;entryDx=0;entryDy=0;" edge="1" parent="1" source="wZW8fb8Z9hkYaqVKA6MU-1" target="wZW8fb8Z9hkYaqVKA6MU-3">
          <mxGeometry relative="1" as="geometry" />
        </mxCell>
        <mxCell id="wZW8fb8Z9hkYaqVKA6MU-1" value="&lt;font size=&quot;3&quot;&gt;START&lt;/font&gt;" style="ellipse;whiteSpace=wrap;html=1;" vertex="1" parent="1">
          <mxGeometry x="400" y="20" width="120" height="80" as="geometry" />
        </mxCell>
        <mxCell id="wZW8fb8Z9hkYaqVKA6MU-6" style="edgeStyle=orthogonalEdgeStyle;rounded=0;orthogonalLoop=1;jettySize=auto;html=1;" edge="1" parent="1" source="wZW8fb8Z9hkYaqVKA6MU-3">
          <mxGeometry relative="1" as="geometry">
            <mxPoint x="460" y="290" as="targetPoint" />
          </mxGeometry>
        </mxCell>
        <mxCell id="wZW8fb8Z9hkYaqVKA6MU-3" value="input selling price&lt;div&gt;&lt;br&gt;&lt;div&gt;input cost price&lt;/div&gt;&lt;/div&gt;" style="shape=parallelogram;perimeter=parallelogramPerimeter;whiteSpace=wrap;html=1;fixedSize=1;" vertex="1" parent="1">
          <mxGeometry x="355" y="160" width="210" height="60" as="geometry" />
        </mxCell>
        <mxCell id="wZW8fb8Z9hkYaqVKA6MU-8" style="edgeStyle=orthogonalEdgeStyle;rounded=0;orthogonalLoop=1;jettySize=auto;html=1;" edge="1" parent="1" source="wZW8fb8Z9hkYaqVKA6MU-7">
          <mxGeometry relative="1" as="geometry">
            <mxPoint x="460" y="430" as="targetPoint" />
          </mxGeometry>
        </mxCell>
        <mxCell id="wZW8fb8Z9hkYaqVKA6MU-7" value="&lt;div style=&quot;&quot;&gt;&lt;pre style=&quot;font-family: &amp;quot;JetBrains Mono&amp;quot;, monospace; font-size: 9.8pt;&quot;&gt;&lt;span style=&quot;background-color: rgb(255, 255, 255);&quot;&gt;profit= (sp-cp)&lt;br&gt;loss= (cp-sp)&lt;/span&gt;&lt;/pre&gt;&lt;/div&gt;" style="shape=parallelogram;perimeter=parallelogramPerimeter;whiteSpace=wrap;html=1;fixedSize=1;" vertex="1" parent="1">
          <mxGeometry x="375" y="290" width="170" height="60" as="geometry" />
        </mxCell>
        <mxCell id="wZW8fb8Z9hkYaqVKA6MU-10" style="edgeStyle=orthogonalEdgeStyle;rounded=0;orthogonalLoop=1;jettySize=auto;html=1;" edge="1" parent="1" source="wZW8fb8Z9hkYaqVKA6MU-9">
          <mxGeometry relative="1" as="geometry">
            <mxPoint x="230" y="610" as="targetPoint" />
          </mxGeometry>
        </mxCell>
        <mxCell id="wZW8fb8Z9hkYaqVKA6MU-18" value="Y" style="edgeLabel;html=1;align=center;verticalAlign=middle;resizable=0;points=[];" connectable="0" vertex="1" parent="wZW8fb8Z9hkYaqVKA6MU-10">
          <mxGeometry x="-0.6351" relative="1" as="geometry">
            <mxPoint as="offset" />
          </mxGeometry>
        </mxCell>
        <mxCell id="wZW8fb8Z9hkYaqVKA6MU-16" style="edgeStyle=orthogonalEdgeStyle;rounded=0;orthogonalLoop=1;jettySize=auto;html=1;" edge="1" parent="1" source="wZW8fb8Z9hkYaqVKA6MU-9">
          <mxGeometry relative="1" as="geometry">
            <mxPoint x="730" y="610" as="targetPoint" />
          </mxGeometry>
        </mxCell>
        <mxCell id="wZW8fb8Z9hkYaqVKA6MU-17" value="N" style="edgeLabel;html=1;align=center;verticalAlign=middle;resizable=0;points=[];" connectable="0" vertex="1" parent="wZW8fb8Z9hkYaqVKA6MU-16">
          <mxGeometry x="-0.3323" y="-1" relative="1" as="geometry">
            <mxPoint as="offset" />
          </mxGeometry>
        </mxCell>
        <mxCell id="wZW8fb8Z9hkYaqVKA6MU-9" value="if SP&amp;gt;CP" style="rhombus;whiteSpace=wrap;html=1;" vertex="1" parent="1">
          <mxGeometry x="370" y="430" width="180" height="80" as="geometry" />
        </mxCell>
        <mxCell id="wZW8fb8Z9hkYaqVKA6MU-12" style="edgeStyle=orthogonalEdgeStyle;rounded=0;orthogonalLoop=1;jettySize=auto;html=1;" edge="1" parent="1" source="wZW8fb8Z9hkYaqVKA6MU-11">
          <mxGeometry relative="1" as="geometry">
            <mxPoint x="230" y="730" as="targetPoint" />
          </mxGeometry>
        </mxCell>
        <mxCell id="KP_2BMXZyqHxs_fhP6yG-25" style="edgeStyle=orthogonalEdgeStyle;rounded=0;orthogonalLoop=1;jettySize=auto;html=1;" edge="1" parent="1" source="wZW8fb8Z9hkYaqVKA6MU-11">
          <mxGeometry relative="1" as="geometry">
            <mxPoint x="491.42857142857144" y="1320" as="targetPoint" />
            <Array as="points">
              <mxPoint x="41" y="640" />
              <mxPoint x="41" y="1320" />
            </Array>
          </mxGeometry>
        </mxCell>
        <mxCell id="wZW8fb8Z9hkYaqVKA6MU-11" value="&lt;div style=&quot;&quot;&gt;&lt;pre style=&quot;font-family: &amp;quot;JetBrains Mono&amp;quot;, monospace; font-size: 9.8pt;&quot;&gt;&lt;span style=&quot;background-color: rgb(255, 255, 255);&quot;&gt;profit_per= profit/cp*100&lt;/span&gt;&lt;font style=&quot;background-color: rgb(30, 31, 34);&quot; color=&quot;#2aacb8&quot;&gt;&lt;br&gt;&lt;/font&gt;&lt;/pre&gt;&lt;/div&gt;" style="shape=parallelogram;perimeter=parallelogramPerimeter;whiteSpace=wrap;html=1;fixedSize=1;" vertex="1" parent="1">
          <mxGeometry x="120" y="610" width="220" height="60" as="geometry" />
        </mxCell>
        <mxCell id="wZW8fb8Z9hkYaqVKA6MU-14" style="edgeStyle=orthogonalEdgeStyle;rounded=0;orthogonalLoop=1;jettySize=auto;html=1;" edge="1" parent="1" source="wZW8fb8Z9hkYaqVKA6MU-13">
          <mxGeometry relative="1" as="geometry">
            <mxPoint x="232.5" y="850" as="targetPoint" />
          </mxGeometry>
        </mxCell>
        <mxCell id="KP_2BMXZyqHxs_fhP6yG-26" style="edgeStyle=orthogonalEdgeStyle;rounded=0;orthogonalLoop=1;jettySize=auto;html=1;" edge="1" parent="1" source="wZW8fb8Z9hkYaqVKA6MU-13">
          <mxGeometry relative="1" as="geometry">
            <mxPoint x="490" y="1290" as="targetPoint" />
            <Array as="points">
              <mxPoint x="50" y="760" />
              <mxPoint x="50" y="1040" />
              <mxPoint x="51" y="1040" />
              <mxPoint x="51" y="1290" />
            </Array>
          </mxGeometry>
        </mxCell>
        <mxCell id="wZW8fb8Z9hkYaqVKA6MU-13" value="&lt;div style=&quot;&quot;&gt;&lt;pre style=&quot;font-family: &amp;quot;JetBrains Mono&amp;quot;, monospace; font-size: 9.8pt;&quot;&gt;&lt;span style=&quot;background-color: rgb(255, 255, 255);&quot;&gt;print(&quot;increased profit of&quot;, profit)&lt;/span&gt;&lt;font style=&quot;background-color: rgb(30, 31, 34);&quot; color=&quot;#bcbec4&quot;&gt;&lt;br&gt;&lt;/font&gt;&lt;/pre&gt;&lt;/div&gt;" style="shape=parallelogram;perimeter=parallelogramPerimeter;whiteSpace=wrap;html=1;fixedSize=1;" vertex="1" parent="1">
          <mxGeometry x="70" y="730" width="325" height="60" as="geometry" />
        </mxCell>
        <mxCell id="KP_2BMXZyqHxs_fhP6yG-27" style="edgeStyle=orthogonalEdgeStyle;rounded=0;orthogonalLoop=1;jettySize=auto;html=1;" edge="1" parent="1" source="wZW8fb8Z9hkYaqVKA6MU-15">
          <mxGeometry relative="1" as="geometry">
            <mxPoint x="490" y="1260" as="targetPoint" />
            <Array as="points">
              <mxPoint x="233" y="1085" />
              <mxPoint x="234" y="1085" />
              <mxPoint x="234" y="1260" />
            </Array>
          </mxGeometry>
        </mxCell>
        <mxCell id="wZW8fb8Z9hkYaqVKA6MU-15" value="&lt;div style=&quot;&quot;&gt;&lt;pre style=&quot;font-family: &amp;quot;JetBrains Mono&amp;quot;, monospace; font-size: 9.8pt;&quot;&gt;&lt;span style=&quot;background-color: rgb(255, 255, 255);&quot;&gt;print(&quot;profit_per=&quot;, profit_per)&lt;/span&gt;&lt;font style=&quot;background-color: rgb(30, 31, 34);&quot; color=&quot;#bcbec4&quot;&gt;&lt;br&gt;&lt;/font&gt;&lt;/pre&gt;&lt;/div&gt;" style="shape=parallelogram;perimeter=parallelogramPerimeter;whiteSpace=wrap;html=1;fixedSize=1;" vertex="1" parent="1">
          <mxGeometry x="92.5" y="850" width="280" height="60" as="geometry" />
        </mxCell>
        <mxCell id="KP_2BMXZyqHxs_fhP6yG-6" style="edgeStyle=orthogonalEdgeStyle;rounded=0;orthogonalLoop=1;jettySize=auto;html=1;" edge="1" parent="1" source="KP_2BMXZyqHxs_fhP6yG-5">
          <mxGeometry relative="1" as="geometry">
            <mxPoint x="530" y="770" as="targetPoint" />
          </mxGeometry>
        </mxCell>
        <mxCell id="KP_2BMXZyqHxs_fhP6yG-13" value="Y" style="edgeLabel;html=1;align=center;verticalAlign=middle;resizable=0;points=[];" connectable="0" vertex="1" parent="KP_2BMXZyqHxs_fhP6yG-6">
          <mxGeometry x="-0.5181" y="2" relative="1" as="geometry">
            <mxPoint as="offset" />
          </mxGeometry>
        </mxCell>
        <mxCell id="KP_2BMXZyqHxs_fhP6yG-15" style="edgeStyle=orthogonalEdgeStyle;rounded=0;orthogonalLoop=1;jettySize=auto;html=1;" edge="1" parent="1" source="KP_2BMXZyqHxs_fhP6yG-5">
          <mxGeometry relative="1" as="geometry">
            <mxPoint x="990" y="770" as="targetPoint" />
          </mxGeometry>
        </mxCell>
        <mxCell id="KP_2BMXZyqHxs_fhP6yG-16" value="N" style="edgeLabel;html=1;align=center;verticalAlign=middle;resizable=0;points=[];" connectable="0" vertex="1" parent="KP_2BMXZyqHxs_fhP6yG-15">
          <mxGeometry x="-0.3556" y="-2" relative="1" as="geometry">
            <mxPoint x="1" as="offset" />
          </mxGeometry>
        </mxCell>
        <mxCell id="KP_2BMXZyqHxs_fhP6yG-5" value="if CP&amp;gt;SP" style="rhombus;whiteSpace=wrap;html=1;" vertex="1" parent="1">
          <mxGeometry x="620" y="610" width="220" height="80" as="geometry" />
        </mxCell>
        <mxCell id="KP_2BMXZyqHxs_fhP6yG-7" style="edgeStyle=orthogonalEdgeStyle;rounded=0;orthogonalLoop=1;jettySize=auto;html=1;" edge="1" parent="1" source="KP_2BMXZyqHxs_fhP6yG-8">
          <mxGeometry relative="1" as="geometry">
            <mxPoint x="540" y="900" as="targetPoint" />
          </mxGeometry>
        </mxCell>
        <mxCell id="KP_2BMXZyqHxs_fhP6yG-8" value="&lt;div style=&quot;&quot;&gt;&lt;pre style=&quot;font-family: &amp;quot;JetBrains Mono&amp;quot;, monospace; font-size: 9.8pt;&quot;&gt;&lt;span style=&quot;background-color: rgb(255, 255, 255);&quot;&gt;loss_per= loss/cp*100&lt;/span&gt;&lt;font style=&quot;background-color: rgb(30, 31, 34);&quot; color=&quot;#2aacb8&quot;&gt;&lt;br&gt;&lt;/font&gt;&lt;/pre&gt;&lt;/div&gt;" style="shape=parallelogram;perimeter=parallelogramPerimeter;whiteSpace=wrap;html=1;fixedSize=1;" vertex="1" parent="1">
          <mxGeometry x="440" y="770" width="200" height="60" as="geometry" />
        </mxCell>
        <mxCell id="KP_2BMXZyqHxs_fhP6yG-18" style="edgeStyle=orthogonalEdgeStyle;rounded=0;orthogonalLoop=1;jettySize=auto;html=1;" edge="1" parent="1" source="KP_2BMXZyqHxs_fhP6yG-9">
          <mxGeometry relative="1" as="geometry">
            <mxPoint x="540" y="1010" as="targetPoint" />
          </mxGeometry>
        </mxCell>
        <mxCell id="KP_2BMXZyqHxs_fhP6yG-21" style="edgeStyle=orthogonalEdgeStyle;rounded=0;orthogonalLoop=1;jettySize=auto;html=1;" edge="1" parent="1" source="KP_2BMXZyqHxs_fhP6yG-9" target="KP_2BMXZyqHxs_fhP6yG-19">
          <mxGeometry relative="1" as="geometry">
            <mxPoint x="740" y="1250" as="targetPoint" />
            <Array as="points">
              <mxPoint x="741" y="930" />
              <mxPoint x="741" y="1250" />
            </Array>
          </mxGeometry>
        </mxCell>
        <mxCell id="KP_2BMXZyqHxs_fhP6yG-9" value="&lt;div style=&quot;&quot;&gt;&lt;pre style=&quot;font-family: &amp;quot;JetBrains Mono&amp;quot;, monospace; font-size: 9.8pt;&quot;&gt;&lt;font style=&quot;background-color: rgb(255, 255, 255);&quot; color=&quot;#1a1a1a&quot;&gt;print(&quot;increased loss of&quot;, loss)&lt;/font&gt;&lt;font style=&quot;background-color: rgb(30, 31, 34);&quot; color=&quot;#bcbec4&quot;&gt;&lt;br&gt;&lt;/font&gt;&lt;/pre&gt;&lt;/div&gt;" style="shape=parallelogram;perimeter=parallelogramPerimeter;whiteSpace=wrap;html=1;fixedSize=1;" vertex="1" parent="1">
          <mxGeometry x="390" y="900" width="300" height="60" as="geometry" />
        </mxCell>
        <mxCell id="KP_2BMXZyqHxs_fhP6yG-24" style="edgeStyle=orthogonalEdgeStyle;rounded=0;orthogonalLoop=1;jettySize=auto;html=1;" edge="1" parent="1" source="KP_2BMXZyqHxs_fhP6yG-11">
          <mxGeometry relative="1" as="geometry">
            <mxPoint x="535" y="1220" as="targetPoint" />
          </mxGeometry>
        </mxCell>
        <mxCell id="KP_2BMXZyqHxs_fhP6yG-11" value="&lt;div style=&quot;&quot;&gt;&lt;pre style=&quot;font-family: &amp;quot;JetBrains Mono&amp;quot;, monospace; font-size: 9.8pt;&quot;&gt;&lt;span style=&quot;background-color: rgb(255, 255, 255);&quot;&gt;print(&quot;loss_per&quot;,loss_per)&lt;/span&gt;&lt;/pre&gt;&lt;/div&gt;" style="shape=parallelogram;perimeter=parallelogramPerimeter;whiteSpace=wrap;html=1;fixedSize=1;" vertex="1" parent="1">
          <mxGeometry x="400" y="1020" width="270" height="60" as="geometry" />
        </mxCell>
        <mxCell id="KP_2BMXZyqHxs_fhP6yG-20" style="edgeStyle=orthogonalEdgeStyle;rounded=0;orthogonalLoop=1;jettySize=auto;html=1;" edge="1" parent="1" source="KP_2BMXZyqHxs_fhP6yG-17">
          <mxGeometry relative="1" as="geometry">
            <mxPoint x="590" y="1280" as="targetPoint" />
            <Array as="points">
              <mxPoint x="980" y="1277" />
              <mxPoint x="620" y="1277" />
            </Array>
          </mxGeometry>
        </mxCell>
        <mxCell id="KP_2BMXZyqHxs_fhP6yG-17" value="print (no profit no loss)" style="shape=parallelogram;perimeter=parallelogramPerimeter;whiteSpace=wrap;html=1;fixedSize=1;" vertex="1" parent="1">
          <mxGeometry x="860" y="770" width="240" height="60" as="geometry" />
        </mxCell>
        <mxCell id="KP_2BMXZyqHxs_fhP6yG-28" style="edgeStyle=orthogonalEdgeStyle;rounded=0;orthogonalLoop=1;jettySize=auto;html=1;" edge="1" parent="1" source="KP_2BMXZyqHxs_fhP6yG-19" target="KP_2BMXZyqHxs_fhP6yG-29">
          <mxGeometry relative="1" as="geometry">
            <mxPoint x="540.0000000000002" y="1480" as="targetPoint" />
          </mxGeometry>
        </mxCell>
        <mxCell id="KP_2BMXZyqHxs_fhP6yG-19" value="" style="ellipse;whiteSpace=wrap;html=1;aspect=fixed;" vertex="1" parent="1">
          <mxGeometry x="495" y="1230" width="90" height="90" as="geometry" />
        </mxCell>
        <mxCell id="KP_2BMXZyqHxs_fhP6yG-29" value="&lt;font size=&quot;3&quot;&gt;STOP&lt;/font&gt;" style="ellipse;whiteSpace=wrap;html=1;" vertex="1" parent="1">
          <mxGeometry x="480.0000000000002" y="1440" width="120" height="80" as="geometry" />
        </mxCell>
      </root>
    </mxGraphModel>
  </diagram>
</mxfile>
